<?xml version="1.0" encoding="UTF-8"?>
<svg width="324px" height="64px" viewBox="0 0 324 64" version="1.1" xmlns="http://www.w3.org/2000/svg" xmlns:xlink="http://www.w3.org/1999/xlink">
    <!-- Generator: Sketch 55.2 (78181) - https://sketchapp.com -->
    <title>logo-en-light</title>
    <desc>Created with Sketch.</desc>
    <defs>
        <radialGradient cx="50%" cy="21.6764706%" fx="50%" fy="21.6764706%" r="63.2626379%" gradientTransform="translate(0.500000,0.216765),scale(0.997243,1.000000),translate(-0.500000,-0.216765)" id="radialGradient-1">
            <stop stop-color="#44ADE2" offset="20%"></stop>
            <stop stop-color="#005B8E" offset="100%"></stop>
        </radialGradient>
        <radialGradient cx="-6.77915035%" cy="94.5940667%" fx="-6.77915035%" fy="94.5940667%" r="128.370185%" gradientTransform="translate(-0.067792,0.945941),scale(0.528016,1.000000),translate(0.067792,-0.945941)" id="radialGradient-2">
            <stop stop-color="#FFFFFF" offset="0%"></stop>
            <stop stop-color="#CBCED0" offset="100%"></stop>
        </radialGradient>
        <radialGradient cx="103.334338%" cy="5.16128869%" fx="103.334338%" fy="5.16128869%" r="122.50086%" gradientTransform="translate(1.033343,0.051613),scale(0.527817,1.000000),rotate(180.000000),translate(-1.033343,-0.051613)" id="radialGradient-3">
            <stop stop-color="#FFFFFF" offset="0%"></stop>
            <stop stop-color="#C1272D" offset="100%"></stop>
        </radialGradient>
    </defs>
    <g id="Page-1" stroke="none" stroke-width="1" fill="none" fill-rule="evenodd">
        <g id="Login" transform="translate(-850.000000, -160.000000)" fill-rule="nonzero">
            <g id="Body" transform="translate(735.000000, 160.000000)">
                <g id="Logos" transform="translate(115.000000, 0.000000)">
                    <g id="Logo">
                        <g id="logo-en-light">
                            <path d="M321.264692,46.5398058 C322.205538,46.6765049 322.672846,46.8318447 322.672846,47.0120388 C322.672846,47.192233 322.560692,47.2792233 322.336385,47.4159223 L319.582385,49.2240777 C319.010894,49.6290529 318.327004,49.846252 317.625923,49.8454392 L304.778077,49.8454392 C304.236,49.8454392 303.968077,49.6217476 303.968077,49.1743689 L303.968077,48.9693204 L309.083538,29.775534 L309.083538,29.576699 C309.083538,29.1728155 308.815615,28.9553398 308.279769,28.9553398 C306.485308,28.9553398 305.498769,29.2245955 305.320154,29.7631068 L300.204692,48.9568932 C300.074833,49.5228868 299.536263,49.8988463 298.958538,49.8267961 L286.135615,49.8267961 C285.549923,49.8267961 285.263308,49.6031068 285.263308,49.1619417 C285.267071,49.0950922 285.284009,49.0296378 285.313154,48.9693204 L290.428615,29.775534 C290.428615,29.7320388 290.428615,29.6636893 290.428615,29.5704854 C290.428615,29.1603883 290.135769,28.9491262 289.556308,28.9491262 C287.761846,28.9491262 286.796077,29.2163107 286.659,29.7506796 L281.549769,48.944466 C281.394395,49.5102707 280.851369,49.8809293 280.266231,49.8205825 L267.430846,49.8205825 C266.845154,49.8205825 266.552308,49.5968932 266.552308,49.1495146 L266.552308,48.944466 L271.661538,29.7631068 C271.710177,29.6580789 271.733642,29.5432053 271.730077,29.4275728 C271.730077,28.8932039 271.337538,28.2656311 270.552462,27.5634951 C269.767385,26.8613592 269.374846,26.4201942 269.374846,26.3207767 C269.374846,26.0970874 269.599154,25.9852427 270.047769,25.9852427 L317.557385,25.9852427 C319.122761,25.9189691 320.663177,26.3929871 321.918923,27.3273786 C323.014845,28.1230858 323.655876,29.3992964 323.638955,30.751068 C323.635787,31.1565831 323.589838,31.5606555 323.501538,31.9565049 L319.869,45.4462136 L319.869,45.6450485 C319.850308,46.0986408 320.317615,46.4093204 321.264692,46.5398058 Z M263.287385,27.2838835 C264.383307,28.0795907 265.024337,29.3558013 265.007417,30.7075728 C265.004185,31.1173064 264.936907,31.5240556 264.807692,31.9130097 L261.642462,43.855534 C261.107466,45.6245696 259.93287,47.1324987 258.346385,48.0869903 C256.637259,49.237008 254.61975,49.8455734 252.558,49.8330097 L230.127231,49.8330097 C228.567131,49.8957904 227.031115,49.4340675 225.765692,48.5219417 C224.668894,47.7445094 224.027673,46.4772285 224.052231,45.135534 C224.047982,44.7008596 224.11534,44.2684396 224.251615,43.855534 L227.416846,31.9130097 C227.815615,30.3036893 228.906,28.9056311 230.675538,27.718835 C232.369245,26.5574287 234.377299,25.9376016 236.432769,25.9417476 L258.950769,25.9417476 C260.507837,25.8802195 262.038832,26.354046 263.287385,27.2838835 Z M244.800692,46.8132039 C245.517231,46.8132039 245.940923,46.5398058 246.078,45.9992233 L250.439538,29.7631068 C250.435281,29.6968965 250.435281,29.6304822 250.439538,29.5642718 C250.439538,29.1603883 250.146692,28.9429126 249.567231,28.9429126 L244.246154,28.9429126 C243.681594,28.8716522 243.144835,29.206851 242.962615,29.744466 L238.638462,45.9805825 L238.638462,46.1794175 C238.638462,46.583301 238.931308,46.8007767 239.510769,46.8007767 L244.800692,46.8132039 Z M204.581077,45.9805825 L205.721308,41.6869903 C205.898696,41.1478507 206.433958,40.8093524 206.998615,40.8792233 L219.852692,40.8792233 C220.438385,40.8792233 220.731231,41.0842718 220.731231,41.5005825 C220.731231,41.5937864 220.525615,42.376699 220.108154,43.8493204 C219.576401,45.6200239 218.400985,47.1290058 216.812077,48.0807767 C215.103289,49.2315021 213.085555,49.8401353 211.023692,49.8267961 L188.592923,49.8267961 C187.032824,49.8895768 185.496807,49.4278539 184.231385,48.5157282 C183.136277,47.7368476 182.495538,46.4705192 182.517923,45.1293204 C182.516802,44.6948772 182.584083,44.2629519 182.717308,43.8493204 L185.882538,31.9067961 C186.398853,30.1468038 187.56573,28.647814 189.147462,27.7126214 C190.838896,26.5513461 192.844937,25.9314694 194.898462,25.935534 L217.453846,25.935534 C219.01876,25.8728169 220.558011,26.3464765 221.815385,27.2776699 C222.909774,28.0740292 223.548599,29.3504726 223.528846,30.7013592 C223.529291,31.1113715 223.46194,31.5186512 223.329462,31.9067961 L222.793615,34.056699 C222.66016,34.6370816 222.100325,35.0165032 221.510077,34.9266019 L208.618615,34.9266019 C208.032923,34.9266019 207.740077,34.7029126 207.740077,34.255534 C207.824649,33.4451861 208.034843,32.6528405 208.363154,31.9067961 C208.693501,31.1614627 208.903782,30.3687924 208.986231,29.5580583 C208.986231,29.1541748 208.693385,28.936699 208.113923,28.936699 L202.755462,28.936699 C202.199499,28.8807347 201.680001,29.2200678 201.509308,29.7506796 L197.185154,45.9867961 C197.189412,46.0530064 197.189412,46.1194208 197.185154,46.1856311 C197.185154,46.5895146 197.478,46.8069903 198.057462,46.8069903 L203.378538,46.8069903 C204.020308,46.8132039 204.444,46.5398058 204.581077,45.9805825 Z M160.903385,48.9568932 L166.018846,29.7631068 C166.067485,29.6580789 166.090949,29.5432053 166.087385,29.4275728 C166.087385,28.8932039 165.694846,28.2656311 164.909769,27.5634951 C164.124692,26.8613592 163.732154,26.4201942 163.732154,26.3207767 C163.732154,26.0970874 163.931538,25.9852427 164.355231,25.9852427 L180.978923,25.9852427 C181.514769,25.9852427 181.782692,26.208932 181.782692,26.6563107 L181.782692,26.8551456 L176.798077,45.4462136 L176.798077,45.6450485 C176.798077,46.1421359 177.271615,46.4528155 178.212462,46.583301 C179.153308,46.7137864 179.626846,46.8753398 179.626846,47.055534 C179.626846,47.2357282 179.514692,47.3227184 179.290385,47.4594175 L176.530154,49.2675728 C175.986869,49.6631853 175.333575,49.8803497 174.660923,49.888932 L161.713385,49.888932 C161.177538,49.888932 160.903385,49.6652427 160.903385,49.2178641 L160.903385,48.9568932 Z M170.966077,21.6792233 C169.869279,20.9017909 169.228057,19.6345101 169.252615,18.2928155 C169.252615,16.4287379 170.199692,14.7324272 172.112538,13.2598058 C173.914455,11.8176606 176.157478,11.0347669 178.467923,11.0415534 C180.032837,10.9788364 181.572088,11.4524959 182.829462,12.3836893 C183.922212,13.1814292 184.560584,14.4569685 184.542923,15.8073786 C184.542923,17.6424595 183.602077,19.2994175 181.720385,20.7782524 C179.903667,22.2321137 177.638156,23.0137447 175.308923,22.9902913 C173.755151,23.0488637 172.226396,22.5873456 170.966077,21.6792233 Z M156.872077,46.5398058 C157.812923,46.6765049 158.280231,46.8318447 158.280231,47.0120388 C158.280231,47.192233 158.168077,47.2792233 157.943769,47.4159223 L155.189769,49.2240777 C154.618279,49.6290529 153.934388,49.846252 153.233308,49.8454392 L140.385462,49.8454392 C139.799769,49.8454392 139.506923,49.6217476 139.506923,49.1743689 C139.517582,49.1025513 139.540779,49.033152 139.575462,48.9693204 L144.690923,29.775534 L144.690923,29.576699 C144.690923,29.1728155 144.398077,28.9553398 143.818615,28.9553398 L138.516231,28.9553398 C137.799692,28.9553398 137.369769,29.2225243 137.238923,29.7631068 L132.123462,48.9568932 C131.965977,49.517684 131.427249,49.8845816 130.846154,49.8267961 L117.973385,49.8267961 C117.387692,49.8267961 117.101077,49.6031068 117.101077,49.1557282 L117.101077,48.9506796 L122.216538,29.7568932 C122.262821,29.6512892 122.284139,29.536488 122.278846,29.4213592 C122.278846,28.8869903 121.886308,28.2594175 121.101231,27.5572816 C120.316154,26.8551456 119.923615,26.4139806 119.923615,26.3145631 C119.923615,26.0908738 120.147923,25.9790291 120.596538,25.9790291 L153.171,25.9790291 C154.736376,25.9127555 156.276792,26.3867735 157.532538,27.321165 C158.628461,28.1168722 159.269491,29.3930828 159.252571,30.7448544 C159.250685,31.1552132 159.181212,31.5625023 159.046615,31.9502913 L155.482615,45.44 L155.482615,45.638835 C155.457692,46.0986408 155.925,46.4093204 156.872077,46.5398058 Z M112.776923,46.5398058 C113.717769,46.6765049 114.185077,46.8318447 114.185077,47.0120388 C114.185077,47.192233 114.054231,47.2792233 113.786308,47.4159223 L111.094615,49.2240777 C110.51738,49.6174461 109.83719,49.8334701 109.138154,49.8454369 L80.2896923,49.8454369 C78.7292839,49.9106534 77.1924839,49.448695 75.9281538,48.5343689 C74.8298433,47.7575865 74.1864156,46.4905526 74.2084615,45.1479612 C74.2063349,44.7129512 74.275796,44.2805407 74.4140769,43.8679612 L78.1151538,29.775534 C78.1614365,29.66993 78.1827548,29.5551287 78.1774615,29.44 C78.1774615,28.9056311 77.7849231,28.2780583 76.9998462,27.5759223 C76.2147692,26.8737864 75.8222308,26.4326214 75.8222308,26.3332039 C75.8222308,26.1095146 76.0278462,25.9976699 76.4453077,25.9976699 L93.0627692,25.9976699 C93.6484615,25.9976699 93.9413077,26.2213592 93.9413077,26.6687379 C93.932055,26.7389271 93.9087471,26.806545 93.8727692,26.8675728 L88.7697692,45.9805825 L88.7697692,46.1794175 C88.7697692,46.583301 89.0626154,46.8007767 89.6420769,46.8007767 L94.9444615,46.8007767 C95.661,46.8007767 96.0846923,46.5273786 96.2217692,45.9867961 L101.337231,26.7992233 C101.49024,26.2352455 102.032095,25.8662182 102.614538,25.9293204 L115.481077,25.9293204 C116.066769,25.9293204 116.359615,26.1530097 116.359615,26.6003883 L116.359615,26.7992233 L111.375,45.3902913 L111.375,45.5891262 C111.381231,46.0986408 111.848538,46.4093204 112.776923,46.5398058 Z" id="Text" fill="#C1272D"></path>
                            <ellipse id="Oval" fill="url(#radialGradient-1)" cx="32.157" cy="31.8508738" rx="10.5923077" ry="10.5631068"></ellipse>
                            <path d="M1.42684615,25.8920388 C4.51406268,10.1127259 19.1116387,-0.749497614 35.1586755,0.791798316 C51.2057123,2.33309425 63.4560797,15.774026 63.4666154,31.8508738 C63.4666154,32.1118447 63.4666154,32.3852427 63.4666154,32.671068 L55.3666154,24.5933981 L49.3975385,30.5460194 C48.6846528,21.5671129 41.1888316,14.6322638 32.157,14.5957282 C24.5784502,14.5664056 17.8753917,19.4914867 15.6579231,26.7184466 L8.94738462,33.4042718 L1.42684615,25.8920388 Z" id="Path" fill="url(#radialGradient-2)"></path>
                            <path d="M32.157,1.09358953 C49.061477,1.1129252 62.8083076,14.6833845 62.9993077,31.5401942 L56.0270769,24.6058252 L55.3666154,23.9471845 L54.7061538,24.6058252 L49.7589231,29.5394175 C48.5651778,20.7465338 41.0545664,14.1766267 32.157,14.1421359 C24.4252995,14.1090859 17.571884,19.0977329 15.2466923,26.4512621 L8.94738462,32.7332039 L1.93776923,25.736699 C4.84467407,11.3962352 17.4860241,1.08749699 32.157,1.09358953 L32.157,1.09358953 Z M32.157,0.161553398 C16.8531929,0.163784336 3.72485094,11.0438752 0.922153846,26.0473786 L8.94738462,34.0504854 L16.0691538,26.9483495 C18.491502,19.0402901 26.3305652,14.0716175 34.5387838,15.2416517 C42.7470024,16.4116859 48.876319,23.3714704 48.9800769,31.6396117 L55.3666154,25.264466 L63.8778462,33.7460194 C63.8778462,33.1246602 63.9339231,32.503301 63.9339231,31.8508738 C63.9339231,23.4463435 60.5860069,15.3860408 54.6266778,9.44314045 C48.6673487,3.50024007 40.584764,0.161553398 32.157,0.161553398 L32.157,0.161553398 Z" id="Shape" fill="#D1D3D4"></path>
                            <path d="M32.157,63.0741851 C14.8737168,63.0536317 0.867984498,49.0865104 0.847384615,31.8508738 C0.847384615,31.5899029 0.847384615,31.3227184 0.847384615,31.0368932 L8.94738462,39.1145631 L14.9226923,33.1619417 C15.5502391,41.4070531 21.9587781,48.0471335 30.1966428,48.9877421 C38.4345074,49.9283507 46.182204,44.9046452 48.6623077,37.0143689 L55.3666154,30.3285437 L62.8871538,37.8283495 C60.0304418,52.4980558 47.1420723,63.0862724 32.157,63.0741851 L32.157,63.0741851 Z" id="Path" fill="url(#radialGradient-3)"></path>
                            <path d="M55.3666154,30.9747573 L62.3824615,37.9712621 C59.2321319,53.384341 44.9279158,63.9431264 29.2260381,62.4459733 C13.5241603,60.9488203 1.48544343,47.8782716 1.32092308,32.1491262 L8.28692308,39.1021359 L8.94738462,39.7607767 L9.60784615,39.1021359 L14.5550769,34.1685437 C15.7567353,42.9562391 23.2635441,49.5201699 32.157,49.5596117 C39.8825618,49.5996461 46.7365811,44.6249849 49.0735385,37.2815534 L55.3666154,31.0058252 L55.3666154,30.9747573 Z M55.3666154,29.6885437 L48.2510769,36.784466 C45.829168,44.6915288 37.9918239,49.6602146 29.784461,48.4918519 C21.5770981,47.3234892 15.4468463,40.3664404 15.3401538,32.0994175 L8.94738462,38.4745631 L0.442384615,29.9930097 C0.405,30.6143689 0.380076923,31.2357282 0.380076923,31.8570874 C0.389692105,48.2211539 12.891908,61.8867425 29.2315278,63.3932615 C45.5711476,64.8997806 60.3738581,53.7517165 63.3918462,37.6667961 L55.3666154,29.6636893 L55.3666154,29.6885437 Z" id="Shape" fill="#C1272D"></path>
                        </g>
                    </g>
                </g>
            </g>
        </g>
    </g>
</svg>