<?xml version="1.0" encoding="UTF-8"?>
<svg width="24px" height="24px" viewBox="0 0 24 24" version="1.1" xmlns="http://www.w3.org/2000/svg" xmlns:xlink="http://www.w3.org/1999/xlink">
    <!-- Generator: Sketch 55.2 (78181) - https://sketchapp.com -->
    <title>Logo-Icon</title>
    <desc>Created with Sketch.</desc>
    <g id="Symbols" stroke="none" stroke-width="1" fill="none" fill-rule="evenodd">
        <g id="Footer" transform="translate(-1266.000000, -8.000000)" fill="#FFFFFF" fill-rule="nonzero">
            <g id="Logo-Icon">
                <path d="M1286.77018,19.1885584 L1286.77489,19.1673679 L1289.80696,22.1999569 C1288.66671,28.2949589 1283.07399,32.5192554 1276.90059,31.9483954 C1270.72719,31.3775355 1266.00363,26.1992823 1266,19.9985045 C1266,19.763055 1266.00942,19.5276056 1266.02119,19.2921561 L1269.23688,22.5060412 L1271.65218,20.0903298 C1271.69608,23.2200198 1274.01118,25.8520632 1277.10923,26.2944654 C1280.20728,26.7368675 1283.16633,24.8579729 1284.08416,21.8656187 L1286.77018,19.1885584 Z M1278.00118,24.0105632 C1275.79095,24.0105632 1273.99922,22.2185199 1273.99922,20.0079225 C1273.99922,17.7973251 1275.79095,16.0052818 1278.00118,16.0052818 C1280.2114,16.0052818 1282.00314,17.7973251 1282.00314,20.0079225 C1282.00314,22.2185199 1280.2114,24.0105632 1278.00118,24.0105632 Z M1277.99882,8 L1277.99411,8 C1284.62478,8 1290,13.3761302 1290,20.0079225 C1290,20.2551444 1289.99058,20.4905938 1289.97646,20.7260433 L1286.76312,17.5121583 L1284.34782,19.9278697 C1284.30862,16.7948521 1281.99285,14.1576056 1278.89164,13.7142487 C1275.79043,13.2708918 1272.82869,15.1536533 1271.91349,18.1502263 L1269.22511,20.8414135 L1266.19304,17.8088246 C1267.25227,12.1218555 1272.215,7.99857746 1277.99882,8 Z"></path>
            </g>
        </g>
    </g>
</svg>